<svg xmlns="http://www.w3.org/2000/svg" viewBox="0 0 32 32" fill="none">
  <rect width="32" height="32" rx="4" fill="#0056d2"/>
  <path fill-rule="evenodd" clip-rule="evenodd" d="M9.5 7H14.6C17.6 7 19.7 8.8 19.7 11.2C19.7 12.9 18.7 14.2 17.1 14.8C18.9 15.3 20.2 16.9 20.2 19.1C20.2 22.1 17.6 24 14.2 24H9.5V7ZM12.6 9.8V13.3H14.1C15.4 13.3 16.2 12.6 16.2 11.55C16.2 10.45 15.4 9.8 14.1 9.8H12.6ZM12.6 15.9V21.2H14.5C16.1 21.2 17.2 20.2 17.2 18.55C17.2 16.9 16.1 15.9 14.5 15.9H12.6Z" fill="white"/>
</svg>
